<mxfile host="app.diagrams.net" agent="Mozilla/5.0 (Macintosh; Intel Mac OS X 10_15_7) AppleWebKit/537.36 (KHTML, like Gecko) Chrome/130.0.0.0 Safari/537.36" version="24.8.3">
  <diagram name="第 1 页" id="dKwOSsb6fbdX-2thlH3-">
    <mxGraphModel dx="1026" dy="650" grid="1" gridSize="10" guides="1" tooltips="1" connect="1" arrows="1" fold="1" page="1" pageScale="1" pageWidth="827" pageHeight="1169" math="0" shadow="0">
      <root>
        <mxCell id="0" />
        <mxCell id="1" parent="0" />
        <mxCell id="bh8QJSOfinzk2q0SXnPS-5" value="" style="edgeStyle=orthogonalEdgeStyle;rounded=0;orthogonalLoop=1;jettySize=auto;html=1;" parent="1" source="bh8QJSOfinzk2q0SXnPS-1" target="bh8QJSOfinzk2q0SXnPS-4" edge="1">
          <mxGeometry relative="1" as="geometry" />
        </mxCell>
        <mxCell id="bh8QJSOfinzk2q0SXnPS-1" value="表列表查询&lt;div&gt;（sql创建用）&lt;/div&gt;" style="ellipse;whiteSpace=wrap;html=1;" parent="1" vertex="1">
          <mxGeometry x="270" y="140" width="120" height="50" as="geometry" />
        </mxCell>
        <mxCell id="JAfoWUshAkryapDBamWy-2" value="" style="edgeStyle=orthogonalEdgeStyle;rounded=0;orthogonalLoop=1;jettySize=auto;html=1;" edge="1" parent="1" source="bh8QJSOfinzk2q0SXnPS-4" target="JAfoWUshAkryapDBamWy-1">
          <mxGeometry relative="1" as="geometry" />
        </mxCell>
        <mxCell id="bh8QJSOfinzk2q0SXnPS-4" value="根据参数实体id查询关联的所有非维度属性表" style="shape=process;whiteSpace=wrap;html=1;backgroundOutline=1;" parent="1" vertex="1">
          <mxGeometry x="260" y="240" width="140" height="60" as="geometry" />
        </mxCell>
        <mxCell id="JAfoWUshAkryapDBamWy-4" value="" style="edgeStyle=orthogonalEdgeStyle;rounded=0;orthogonalLoop=1;jettySize=auto;html=1;" edge="1" parent="1" source="JAfoWUshAkryapDBamWy-1" target="JAfoWUshAkryapDBamWy-3">
          <mxGeometry relative="1" as="geometry" />
        </mxCell>
        <mxCell id="JAfoWUshAkryapDBamWy-1" value="根据非维度属性表ids查询出关联的维度属性表ids" style="shape=process;whiteSpace=wrap;html=1;backgroundOutline=1;" vertex="1" parent="1">
          <mxGeometry x="270" y="360" width="120" height="60" as="geometry" />
        </mxCell>
        <mxCell id="JAfoWUshAkryapDBamWy-6" value="" style="edgeStyle=orthogonalEdgeStyle;rounded=0;orthogonalLoop=1;jettySize=auto;html=1;" edge="1" parent="1" source="JAfoWUshAkryapDBamWy-3" target="JAfoWUshAkryapDBamWy-5">
          <mxGeometry relative="1" as="geometry" />
        </mxCell>
        <mxCell id="JAfoWUshAkryapDBamWy-3" value="根据维度属性表ids查询出维度属性表信息" style="shape=process;whiteSpace=wrap;html=1;backgroundOutline=1;" vertex="1" parent="1">
          <mxGeometry x="270" y="500" width="120" height="60" as="geometry" />
        </mxCell>
        <mxCell id="JAfoWUshAkryapDBamWy-5" value="封装返回信息" style="whiteSpace=wrap;html=1;" vertex="1" parent="1">
          <mxGeometry x="270" y="640" width="120" height="60" as="geometry" />
        </mxCell>
      </root>
    </mxGraphModel>
  </diagram>
</mxfile>
